<svg width="20" height="26" viewBox="0 0 20 26" fill="none" xmlns="http://www.w3.org/2000/svg">
<path d="M0.625 0.650002C0.03125 1.2675 0 1.7225 0 13C0 24.2775 0.03125 24.7325 0.625 25.35C1.21875 25.9675 1.65625 26 10 26C18.3438 26 18.7812 25.9675 19.375 25.35C19.9688 24.7325 20 24.2775 20 16.1525V7.6375L16.3125 3.8025L12.6562 0H6.9375C1.65625 0 1.21875 0.0325012 0.625 0.650002ZM17.8125 9.0025C17.8125 9.0675 16.3438 9.1 14.5312 9.1H11.25V5.6225V2.1125L14.5312 5.525C16.3438 7.41 17.8125 8.97 17.8125 9.0025ZM15 14.3V15.6H10H5V14.3V13H10H15V14.3ZM15 19.5V20.8H10H5V19.5V18.2H10H15V19.5Z" fill="#0024FF"/>
</svg>
