<svg width="24" height="26" viewBox="0 0 24 26" fill="none" xmlns="http://www.w3.org/2000/svg">
<path d="M4.66037 0.652691C4.0612 1.23763 3.99463 1.72508 3.99463 5.20222C3.99463 10.0117 4.22764 10.4017 7.25676 10.4017H9.15413L10.4523 12.3515C11.1514 13.4239 11.8504 14.3013 11.9835 14.3013C12.1167 14.3013 12.8157 13.4239 13.5147 12.3515L14.8129 10.4017H16.7103C19.7394 10.4017 19.9724 10.0117 19.9724 5.20222C19.9724 -0.289711 20.4385 0.00275803 11.9835 0.00275803C5.75885 0.00275803 5.29283 0.0352554 4.66037 0.652691Z" fill="#0024FF"/>
<path d="M3.32883 14.9515C2.8961 15.3739 2.66309 16.0238 2.66309 16.9012C2.66309 18.6236 3.56184 19.501 5.32605 19.501C7.09027 19.501 7.98902 18.6236 7.98902 16.9012C7.98902 16.0238 7.75601 15.3739 7.32328 14.9515C6.89055 14.529 6.22481 14.3015 5.32605 14.3015C4.4273 14.3015 3.76156 14.529 3.32883 14.9515Z" fill="#0024FF"/>
<path d="M16.6433 14.9515C16.2105 15.3739 15.9775 16.0238 15.9775 16.9012C15.9775 18.6236 16.8763 19.501 18.6405 19.501C20.4047 19.501 21.3035 18.6236 21.3035 16.9012C21.3035 16.0238 21.0705 15.3739 20.6377 14.9515C20.205 14.529 19.5393 14.3015 18.6405 14.3015C17.7418 14.3015 17.076 14.529 16.6433 14.9515Z" fill="#0024FF"/>
<path d="M1.99723 21.158C0.399445 21.8079 0 22.4254 0 24.2777V26H5.32594H10.6852L10.5853 24.1802C10.4521 21.548 9.61997 20.9955 5.72538 20.898C4.1276 20.833 2.46325 20.963 1.99723 21.158Z" fill="#0024FF"/>
<path d="M15.3122 21.158C13.7144 21.8079 13.3149 22.4254 13.3149 24.2777V26H18.6409H24.0001L23.9002 24.1802C23.7671 21.548 22.9349 20.9955 19.0403 20.898C17.4425 20.833 15.7782 20.963 15.3122 21.158Z" fill="#0024FF"/>
</svg>
