<svg width="25" height="26" viewBox="0 0 25 26" fill="none" xmlns="http://www.w3.org/2000/svg">
<path d="M0.775105 0.592207C0.203892 1.15476 0.173828 1.56927 0.173828 11.8433C0.173828 22.1173 0.203892 22.5318 0.775105 23.0944C1.31625 23.6273 1.76721 23.6865 5.73564 23.6865C8.14075 23.6865 10.0949 23.6273 10.0949 23.5681C10.0949 23.5089 9.82433 22.8871 9.49363 22.1765C8.65184 20.3112 8.6819 17.4688 9.61388 15.5443C11.0269 12.5243 13.9431 10.8366 17.4305 11.0143L19.4147 11.1031V9.03052V6.95795L15.8672 3.46419L12.3497 4.57764e-05H6.84801C1.76721 4.57764e-05 1.34632 0.0296535 0.775105 0.592207ZM17.3102 8.20149C17.3102 8.2607 15.8972 8.29031 14.1535 8.29031H10.9968V5.12225V1.92457L14.1535 5.03342C15.8972 6.75069 17.3102 8.17188 17.3102 8.20149Z" fill="#0024FF"/>
<path d="M14.1538 13.5309C11.9591 14.656 10.9971 16.3141 10.9971 18.9492C10.9971 22.6798 13.2218 24.8708 16.9798 24.8708C17.9719 24.8708 19.1444 24.7228 19.5653 24.5155C20.2567 24.2194 20.4371 24.2786 21.309 25.1077C22.4815 26.2328 22.722 26.2624 23.5638 25.3741C24.4356 24.4859 24.4056 24.3379 23.2631 23.1831C22.4213 22.3245 22.3612 22.1469 22.6618 21.4659C23.5036 19.6302 22.9625 16.2845 21.5495 14.6856C20.1365 13.1164 16.1681 12.465 14.1538 13.5309ZM18.7836 16.1068C21.5495 17.528 20.4071 22.1765 17.2504 22.2061C14.9655 22.2061 13.7028 20.9921 13.7028 18.6827C13.7028 16.2845 16.4086 14.9225 18.7836 16.1068Z" fill="#0024FF"/>
</svg>
