<svg width="26" height="26" viewBox="0 0 26 26" fill="none" xmlns="http://www.w3.org/2000/svg">
<path d="M9.59255 5.36456L4.32795 10.7291L5.2646 11.6177C6.33044 12.6709 6.52422 12.7038 7.33168 11.9468C7.91304 11.4203 7.97764 11.4532 8.97888 12.4405L10.0124 13.4937L0 23.6962L1.06584 24.7494L2.09938 25.8354L12.1118 15.6329L13.3068 16.8506C14.4373 18.0025 14.4696 18.1013 13.9528 18.6937C13.2099 19.5165 13.2422 19.8127 14.3081 20.8329L15.2124 21.7215L20.5093 16.2911L25.8385 10.8608L23.7714 8.75443L22.0919 10.3342L18.8298 7.01013C15.6646 3.78481 15.5677 3.62025 16.0845 3.02785C16.8273 2.20506 16.795 1.90886 15.7292 0.888608L14.8248 0L9.59255 5.36456Z" fill="#0024FF"/>
<path d="M14.3727 26H26V23.3671H14.3727V26Z" fill="#0024FF"/>
</svg>
