<svg width="24" height="25" viewBox="0 0 24 25" fill="none" xmlns="http://www.w3.org/2000/svg">
<path d="M19.1733 10.8194L16.24 7.76389C15.8667 7.375 15.76 6.83333 15.9067 6.34722C16.4 4.79167 16.6667 3.125 16.6667 1.38889C16.6667 0.625 17.2667 0 18 0H22.6667C23.4 0 24 0.625 24 1.38889C24 14.4306 13.8533 25 1.33333 25C0.6 25 0 24.375 0 23.6111V18.7639C0 18 0.6 17.375 1.33333 17.375C2.98667 17.375 4.6 17.0972 6.09333 16.5833C6.56 16.4167 7.09333 16.5417 7.45333 16.9167L10.3867 19.9722C14.16 17.9583 17.2533 14.75 19.1733 10.8194Z" fill="#0024FF"/>
</svg>
