<svg width="28" height="26" viewBox="0 0 28 26" fill="none" xmlns="http://www.w3.org/2000/svg">
<path d="M11.2 18.7778V17.3333H1.414L1.4 23.1111C1.4 24.7144 2.646 26 4.2 26H23.8C25.354 26 26.6 24.7144 26.6 23.1111V17.3333H16.8V18.7778H11.2ZM25.2 5.77778H19.586V2.88889L16.786 0H11.186L8.386 2.88889V5.77778H2.8C1.26 5.77778 0 7.07778 0 8.66667V13C0 14.6033 1.246 15.8889 2.8 15.8889H11.2V13H16.8V15.8889H25.2C26.74 15.8889 28 14.5889 28 13V8.66667C28 7.07778 26.74 5.77778 25.2 5.77778ZM16.8 5.77778H11.2V2.88889H16.8V5.77778Z" fill="#0024FF"/>
</svg>
