<svg width="20" height="26" viewBox="0 0 20 26" fill="none" xmlns="http://www.w3.org/2000/svg">
<path d="M5.82701 0.376093C5.61457 0.586864 5.46282 1.00841 5.46282 1.36973C5.46282 2.45371 4.61305 3.32691 3.55083 3.32691C1.51745 3.32691 0.485584 5.22386 1.6692 6.75949C2.27618 7.57247 2.24583 7.6628 1.18361 8.86721C-0.151745 10.4028 0.030349 11.6675 1.6692 12.5407C2.82246 13.1128 2.88316 13.2332 2.9742 14.7387C3.06525 16.1539 2.91351 16.5454 1.5478 18.9241L0 21.5437L2.09408 21.634L4.15781 21.7243L5.15933 23.8622L6.16085 26L6.88923 24.8257C7.28376 24.1633 8.10319 22.8083 8.71017 21.7846C9.3475 20.7307 9.92413 19.8876 10.0152 19.8876C10.1062 19.8876 10.9863 21.2727 11.9879 22.9589L13.7785 26L14.78 23.9224L15.7815 21.8448L17.9059 21.6942L20 21.5437L18.5129 18.9843C17.1472 16.6658 16.9954 16.2744 17.0561 14.799C17.1472 13.2031 17.1775 13.1429 18.3612 12.5407C20 11.6675 20.1821 10.4028 18.8467 8.86721C17.7845 7.6628 17.7542 7.57247 18.3612 6.75949C19.5448 5.22386 18.5129 3.32691 16.4795 3.32691C15.4173 3.32691 14.5675 2.45371 14.5675 1.36973C14.5675 0.436314 13.9909 0.0147686 12.7466 0.0147686C12.0182 0.0147686 11.4416 0.22554 11.0774 0.616976C10.7739 0.948189 10.2883 1.21918 10.0152 1.21918C9.74203 1.21918 9.25645 0.948189 8.95296 0.616976C8.34598 -0.0755634 6.43399 -0.226114 5.82701 0.376093ZM11.9879 9.92107L9.40819 12.5106L7.739 10.8545L6.0698 9.22853L6.73748 8.536L7.40516 7.84346L8.40668 8.80699L9.40819 9.77052L11.2898 7.90368L13.1715 6.06695L13.8695 6.69927L14.5979 7.36169L11.9879 9.92107ZM7.5569 17.1476C7.95144 17.3884 7.92109 17.5992 7.40516 18.5326C6.67678 19.9478 6.61609 19.9478 5.52352 19.4962L4.6434 19.1348L5.37178 17.9906C6.0698 16.8766 6.73748 16.6357 7.5569 17.1476ZM14.6889 17.9906C15.2959 18.9843 15.3263 19.1348 14.9014 19.2553C14.6282 19.2854 14.2033 19.5263 13.9605 19.7672C13.5357 20.1285 13.3839 19.9779 12.7466 18.8036C12.0789 17.6293 12.0486 17.4186 12.4431 17.1777C13.2929 16.6357 13.9605 16.8766 14.6889 17.9906Z" fill="#0024FF"/>
</svg>
