<svg width="26" height="24" viewBox="0 0 26 24" fill="none" xmlns="http://www.w3.org/2000/svg">
<path d="M11.0175 2.02105C10.66 3.82105 10.3675 4.29474 8.5475 6.31579L6.5 8.55789V15.6316C6.5 22.3263 6.5325 22.7684 7.15 23.3684C7.7675 23.9684 8.2225 24 14.235 24C18.8825 24 20.8325 23.9053 21.19 23.5895C21.4825 23.4 22.685 21.0947 23.855 18.5053C25.7075 14.4632 26 13.5474 26 11.9684C26 8.96842 25.7725 8.84211 19.6625 8.84211C16.9 8.84211 14.625 8.81053 14.625 8.74737C14.625 8.71579 14.8525 7.98947 15.1125 7.13684C15.665 5.33684 15.7625 2.43158 15.275 1.54737C14.8525 0.789474 13.2925 0 12.2525 0C11.5375 0 11.4075 0.189474 11.0175 2.02105Z" fill="#0024FF"/>
<path d="M0 16.4211V24H1.95H3.9V16.4211V8.84211H1.95H0V16.4211Z" fill="#0024FF"/>
</svg>
