<svg width="26" height="26" viewBox="0 0 26 26" fill="none" xmlns="http://www.w3.org/2000/svg">
<path d="M8.419 0.626714C6.93329 1.55501 6.19043 2.94745 6.19043 4.95876C6.19043 8.05308 8.04757 9.90967 11.1428 9.90967C14.238 9.90967 16.0952 8.05308 16.0952 4.95876C16.0952 2.94745 15.3523 1.55501 13.8666 0.626714C12.4738 -0.208752 9.81186 -0.208752 8.419 0.626714Z" fill="#0024FF"/>
<path d="M15.4763 10.5283C15.074 10.9306 14.8573 11.5495 14.8573 12.3849V13.6227H13.6192C11.6073 13.6227 11.1121 14.3653 11.2049 17.2739L11.2978 19.6566L14.3311 19.7494C17.1787 19.8422 17.3335 19.8113 17.3335 19.1924C17.3335 18.6664 17.5192 18.5736 18.5716 18.5736C19.624 18.5736 19.8097 18.6664 19.8097 19.1924C19.8097 19.8113 19.9644 19.8422 22.843 19.7494L25.8454 19.6566L25.9382 17.2739C26.0311 14.3653 25.5359 13.6227 23.524 13.6227H22.2859V12.3849C22.2859 10.4046 21.543 9.90947 18.5716 9.90947C16.4978 9.90947 16.0025 10.0023 15.4763 10.5283ZM19.8097 13.0038C19.8097 13.5298 19.593 13.6227 18.5716 13.6227C17.5502 13.6227 17.3335 13.5298 17.3335 13.0038C17.3335 12.4778 17.5502 12.3849 18.5716 12.3849C19.593 12.3849 19.8097 12.4778 19.8097 13.0038Z" fill="#0024FF"/>
<path d="M6.4381 14.1176C4.05476 14.6746 1.79524 15.8504 0.804762 17.0263C0.0928571 17.8617 0 18.295 0 20.1515V22.2866H4.30238H8.60476L8.75952 18.6353C8.85238 16.655 9.00714 14.7055 9.13095 14.3033C9.40952 13.4988 9.06905 13.4678 6.4381 14.1176Z" fill="#0024FF"/>
<path d="M11.1431 23.4317C11.1431 24.36 11.3288 24.9479 11.7621 25.3811C12.3502 25.9691 12.7835 26 18.5716 26C24.3597 26 24.7931 25.9691 25.3812 25.3811C25.8145 24.9479 26.0002 24.36 26.0002 23.4317V22.1321H18.5716H11.1431V23.4317Z" fill="#0024FF"/>
</svg>
