<svg width="26" height="26" viewBox="0 0 26 26" fill="none" xmlns="http://www.w3.org/2000/svg">
<path d="M9.82217 0.730974C8.08883 1.81393 7.22217 3.43837 7.22217 5.78477C7.22217 9.39463 9.38883 11.5605 12.9999 11.5605C16.6111 11.5605 18.7777 9.39463 18.7777 5.78477C18.7777 3.43837 17.9111 1.81393 16.1777 0.730974C14.5527 -0.243688 11.4472 -0.243688 9.82217 0.730974Z" fill="#0024FF"/>
<path d="M5.92222 16.9393C3.17778 17.95 1.98611 18.6359 0.938889 19.8632C0.108333 20.8379 0 21.3433 0 23.5092V26H13H26V23.5092C26 21.3433 25.8917 20.8379 25.0611 19.8632C23.9778 18.5998 22.0278 17.5168 19.3917 16.7227C17.7306 16.2173 17.55 16.2534 16.8278 16.9032C15.6 18.0222 14.5889 18.4193 13 18.4193C11.4472 18.4193 9.82222 17.7695 9.06389 16.831C8.48611 16.109 8.23333 16.1451 5.92222 16.9393Z" fill="#0024FF"/>
</svg>
