<svg width="841" height="294" viewBox="0 0 841 294" fill="none" xmlns="http://www.w3.org/2000/svg">
<g clip-path="url(#clip0_3_918)">
<mask id="mask0_3_918" style="mask-type:luminance" maskUnits="userSpaceOnUse" x="0" y="0" width="841" height="294">
<path d="M841 0H0V294H841V0Z" fill="white"/>
</mask>
<g mask="url(#mask0_3_918)">
<path d="M56.0227 79.1099H69.6164L105.29 173.912C107.047 178.682 108.805 181.853 110.563 183.425C112.375 184.942 114.792 185.701 117.813 185.701H119.625V192.531H78.6791V185.701C79.9973 185.593 81.2878 185.539 82.5511 185.539C85.1875 185.539 86.9178 185.268 87.7414 184.726C89.3343 183.696 90.1307 182.395 90.1307 180.823C90.1307 179.685 89.3617 176.893 87.8239 172.448L80.2443 150.496H38.5568L29.6591 175.05C28.7253 177.598 28.2587 179.36 28.2587 180.335C28.2587 181.419 28.5331 182.368 29.0823 183.181C29.6865 183.994 30.483 184.617 31.4716 185.051C32.4602 185.43 34.0531 185.62 36.25 185.62C37.733 185.62 38.9412 185.647 39.875 185.701V192.531H5.5199V185.701C8.70549 185.701 10.9849 185.403 12.358 184.807C13.786 184.156 15.0218 183.154 16.0654 181.799C17.1089 180.389 18.482 177.462 20.1847 173.018L56.0227 79.1099ZM41.605 142.528H77.1136L59.3182 93.7449L41.605 142.528ZM145.603 75.2887H151.37L152.194 79.1099H222.717L223.376 75.2887H229.39L241.501 108.624L234.086 111.226C230.516 102.336 226.287 96.1029 221.399 92.5255C216.51 88.8939 210.249 87.0781 202.615 87.0781C199.429 87.0781 197.534 87.2134 196.93 87.4845C196.326 87.7013 195.886 88.1079 195.612 88.7042C195.392 89.3003 195.282 91.1975 195.282 94.3953V173.099C195.282 176.839 195.474 179.36 195.859 180.66C196.298 181.961 196.902 182.964 197.671 183.669C198.44 184.373 199.484 184.888 200.802 185.214C202.175 185.485 205.196 185.647 209.865 185.701V192.531H165.541V185.701C170.429 185.647 173.422 185.485 174.521 185.214C176.443 184.672 177.816 183.642 178.64 182.124C179.464 180.606 179.876 177.815 179.876 173.749V93.3385C179.876 90.8452 179.739 89.3274 179.464 88.7854C179.244 88.2435 178.777 87.8368 178.063 87.5657C177.404 87.2405 176.004 87.0781 173.862 87.0781C167.875 87.0781 163.069 87.8368 159.444 89.3547C155.874 90.8723 152.496 93.447 149.31 97.0786C146.125 100.71 143.406 105.426 141.154 111.226L133.74 108.624L145.603 75.2887ZM500.92 79.1099H514.513L550.185 173.912C551.944 178.682 553.702 181.853 555.458 183.425C557.272 184.942 559.687 185.701 562.708 185.701H564.522V192.531H523.577V185.701C524.895 185.593 526.184 185.539 527.447 185.539C530.083 185.539 531.815 185.268 532.638 184.726C534.23 183.696 535.026 182.395 535.026 180.823C535.026 179.685 534.259 176.893 532.719 172.448L525.14 150.496H483.454L474.556 175.05C473.623 177.598 473.156 179.36 473.156 180.335C473.156 181.419 473.43 182.368 473.979 183.181C474.582 183.994 475.379 184.617 476.367 185.051C477.356 185.43 478.948 185.62 481.147 185.62C482.629 185.62 483.839 185.647 484.772 185.701V192.531H450.418V185.701C453.602 185.701 455.88 185.403 457.254 184.807C458.682 184.156 459.919 183.154 460.963 181.799C462.004 180.389 463.378 177.462 465.081 173.018L500.92 79.1099ZM486.501 142.528H522.011L504.215 93.7449L486.501 142.528ZM588.191 79.1099H632.516V86.021H629.469C625.952 86.021 623.426 86.3462 621.889 86.9967C620.405 87.6471 619.361 88.7854 618.757 90.4115C618.264 91.6039 618.016 94.1245 618.016 97.9728V129.601H677.582V98.7861C677.582 94.6123 677.445 92.0917 677.168 91.2246C676.731 89.49 675.769 88.1891 674.287 87.3219C672.858 86.4547 670.662 86.021 667.696 86.021H663.164V79.1099H707.157V86.021H703.203C700.129 86.021 697.93 86.3733 696.612 87.0781C695.349 87.7286 694.445 88.6499 693.894 89.8422C693.401 90.9808 693.153 93.4741 693.153 97.3223V174.563C693.153 178.845 693.427 181.582 693.975 182.774C694.526 183.913 695.623 184.726 697.271 185.214C698.259 185.539 701.555 185.701 707.157 185.701V192.531H663.164V185.701H666.378C670.44 185.701 673.132 185.43 674.45 184.888C675.824 184.346 676.702 183.479 677.087 182.287C677.416 181.365 677.582 178.465 677.582 173.587V138.382H618.016V174.563C618.016 178.845 618.291 181.582 618.839 182.774C619.445 183.967 620.571 184.78 622.219 185.214C623.426 185.539 626.859 185.701 632.516 185.701V192.531H588.191V185.701H590.994C595.278 185.701 597.94 185.485 598.984 185.051C600.084 184.563 600.935 183.669 601.539 182.368C602.198 181.067 602.528 178.763 602.528 175.457V97.3223C602.528 93.7993 602.225 91.3601 601.621 90.0051C601.073 88.6499 600.166 87.6471 598.903 86.9967C597.695 86.3462 595.663 86.021 592.805 86.021H588.191V79.1099ZM740.634 75.2887H746.399L747.225 79.1099H817.747L818.406 75.2887H824.42L836.531 108.624L829.115 111.226C825.546 102.336 821.317 96.1029 816.429 92.5255C811.541 88.8939 805.28 87.0781 797.645 87.0781C794.46 87.0781 792.565 87.2134 791.961 87.4845C791.357 87.7013 790.917 88.1079 790.643 88.7042C790.421 89.3003 790.313 91.1975 790.313 94.3953V173.099C790.313 176.839 790.506 179.36 790.888 180.66C791.328 181.961 791.932 182.964 792.702 183.669C793.472 184.373 794.513 184.888 795.831 185.214C797.205 185.485 800.226 185.647 804.895 185.701V192.531H760.57V185.701C765.46 185.647 768.453 185.485 769.552 185.214C771.474 184.672 772.847 183.642 773.67 182.124C774.495 180.606 774.906 177.815 774.906 173.749V93.3385C774.906 90.8452 774.769 89.3274 774.495 88.7854C774.274 88.2435 773.807 87.8368 773.093 87.5657C772.434 87.2405 771.034 87.0781 768.893 87.0781C762.906 87.0781 758.1 87.8368 754.475 89.3547C750.905 90.8723 747.528 93.447 744.34 97.0786C741.156 100.71 738.438 105.426 736.184 111.226L728.77 108.624L740.634 75.2887Z" fill="#161824"/>
<path d="M336.313 44.3521L291.824 166.31C290.424 170.131 289.723 172.774 289.723 174.237C289.723 176.433 290.382 178.221 291.7 179.603C293.1 180.904 294.379 181.636 295.531 181.799C296.686 181.961 300.556 182.124 307.147 182.286V192.531H255.615V182.286C262.371 182.286 266.942 181.189 269.334 178.994C271.722 176.717 274.482 171.473 277.612 163.261L331.37 22.3996H351.759L405.27 164.603C407.743 171.27 410.255 175.904 412.81 178.506C415.446 181.026 419.153 182.286 423.93 182.286H426.772V192.531H365.355V182.286C367.085 182.124 369.679 182.043 373.14 182.043C379.402 181.961 382.531 179.603 382.531 174.969C382.531 172.937 381.379 168.749 379.072 162.407L336.313 44.3521Z" fill="#0A8FD4"/>
<path d="M59.4624 244.617C59.4624 248.967 58.7208 252.768 57.2378 256.02C55.7549 259.252 53.6542 261.722 50.9353 263.429C48.2167 265.136 45.0446 265.989 41.4196 265.989C38.0008 265.989 34.9318 265.178 32.2132 263.551C29.5149 261.925 27.3934 259.598 25.8487 256.569C24.3246 253.54 23.4801 250.004 23.3153 245.959H16.8583V265.381H10.9265V220.988H16.8583V241.355H23.2844C23.3462 237.167 24.1186 233.499 25.6016 230.348C27.0844 227.177 29.1956 224.728 31.9351 223C34.6742 221.252 37.8155 220.378 41.358 220.378C44.9624 220.378 48.1342 221.242 50.8736 222.97C53.6337 224.677 55.7549 227.167 57.2378 230.44C58.7208 233.692 59.4624 237.483 59.4624 241.812V244.617ZM53.5614 241.751C53.5614 236.487 52.4905 232.452 50.3485 229.647C48.2064 226.822 45.2094 225.409 41.358 225.409C37.6093 225.409 34.6537 226.822 32.4911 229.647C30.349 232.452 29.2473 236.355 29.1853 241.355V244.617C29.1853 249.719 30.2668 253.733 32.4294 256.66C34.6126 259.567 37.6093 261.02 41.4196 261.02C45.2508 261.02 48.2167 259.649 50.3174 256.904C52.4183 254.14 53.4997 250.187 53.5614 245.044V241.751ZM84.4143 248.001V265.381H78.4824V220.988H95.0731C99.9957 220.988 103.847 222.228 106.628 224.708C109.429 227.187 110.829 230.47 110.829 234.556C110.829 238.865 109.46 242.188 106.721 244.526C104.002 246.843 100.099 248.001 95.0111 248.001H84.4143ZM84.4143 243.215H95.0731C98.2449 243.215 100.675 242.483 102.364 241.019C104.053 239.536 104.897 237.401 104.897 234.617C104.897 231.974 104.053 229.86 102.364 228.275C100.675 226.689 98.3583 225.866 95.4129 225.805H84.4143V243.215ZM158.149 220.988H164.081V265.381H158.149V231.171L135.998 265.381H130.035V220.988H135.998V255.197L158.149 220.988ZM227.435 276.266H221.534V265.381H189.249V276.295H183.317L183.287 260.593H186.963C188.899 258.439 190.434 255.553 191.566 251.935C192.72 248.296 193.441 244.312 193.729 239.983L194.718 220.988H221.627V260.593H227.497L227.435 276.266ZM193.729 260.593H215.664V225.805H200.433L199.784 238.855C199.517 243.957 198.827 248.306 197.715 251.904C196.623 255.502 195.294 258.398 193.729 260.593ZM274.293 220.988H280.224V265.381H274.293V231.171L252.14 265.381H246.178V220.988H252.14V255.197L274.293 220.988ZM334.154 220.988V265.381H328.193V246.995C326.029 247.605 324.062 248.032 322.29 248.276C320.521 248.499 318.502 248.611 316.237 248.611C311.107 248.611 307.297 247.514 304.806 245.319C302.312 243.123 301.036 239.759 300.973 235.227V220.988H306.936V235.074C306.957 238.164 307.669 240.389 309.069 241.751C310.49 243.113 312.878 243.794 316.237 243.794C320.15 243.794 324.136 243.245 328.193 242.148V220.988H334.154ZM381.69 244.861H362.197V260.593H384.843V265.381H356.265V220.988H384.532V225.805H362.197V240.074H381.69V244.861ZM436.703 251.294C436.147 255.99 434.386 259.618 431.42 262.18C428.475 264.72 424.552 265.989 419.651 265.989C414.336 265.989 410.073 264.111 406.859 260.349C403.667 256.589 402.072 251.559 402.072 245.257V240.989C402.072 236.863 402.813 233.234 404.294 230.104C405.8 226.974 407.919 224.575 410.659 222.909C413.398 221.221 416.572 220.378 420.176 220.378C424.953 220.378 428.783 221.699 431.668 224.342C434.552 226.964 436.231 230.602 436.703 235.257H430.742C430.226 231.72 429.102 229.159 427.373 227.574C425.665 225.988 423.266 225.195 420.176 225.195C416.385 225.195 413.408 226.577 411.246 229.342C409.106 232.106 408.033 236.04 408.033 241.141V245.44C408.033 250.258 409.053 254.089 411.091 256.935C413.131 259.781 415.984 261.205 419.651 261.205C422.947 261.205 425.47 260.471 427.22 259.008C428.989 257.524 430.165 254.953 430.742 251.294H436.703ZM467.897 245.44H462.429V265.381H456.497V220.988H462.429V240.562H467.064L482.787 220.988H490.171L472.995 242.513L491.439 265.381H484.179L467.897 245.44ZM541.878 244.617C541.878 248.967 541.137 252.768 539.653 256.02C538.172 259.252 536.07 261.722 533.352 263.429C530.634 265.136 527.46 265.989 523.835 265.989C520.294 265.989 517.152 265.136 514.413 263.429C511.673 261.702 509.543 259.252 508.017 256.081C506.514 252.89 505.742 249.201 505.702 245.014V241.812C505.702 237.544 506.453 233.773 507.956 230.501C509.459 227.228 511.581 224.728 514.32 223C517.081 221.252 520.231 220.378 523.774 220.378C527.378 220.378 530.55 221.242 533.289 222.97C536.049 224.677 538.172 227.167 539.653 230.44C541.137 233.692 541.878 237.483 541.878 241.812V244.617ZM535.978 241.751C535.978 236.487 534.908 232.452 532.764 229.647C530.624 226.822 527.626 225.409 523.774 225.409C520.025 225.409 517.07 226.822 514.908 229.647C512.765 232.452 511.663 236.355 511.602 241.355V244.617C511.602 249.719 512.683 253.733 514.845 256.66C517.028 259.567 520.025 261.02 523.835 261.02C527.668 261.02 530.634 259.649 532.733 256.904C534.834 254.14 535.915 250.187 535.978 245.044V241.751ZM587.593 244.861H568.097V260.593H590.743V265.381H562.165V220.988H590.435V225.805H568.097V240.074H587.593V244.861ZM664.034 225.805H642.347V239.098H653.531C658.226 239.16 661.893 240.349 664.53 242.666C667.166 244.983 668.484 248.134 668.484 252.117C668.484 256.122 667.156 259.313 664.498 261.691C661.841 264.069 658.216 265.3 653.623 265.381H636.384V220.988H664.034V225.805ZM642.347 243.916V260.593H653.191C656.136 260.593 658.421 259.821 660.048 258.276C661.696 256.732 662.521 254.658 662.521 252.057C662.521 249.557 661.727 247.585 660.143 246.142C658.577 244.699 656.341 243.957 653.439 243.916H642.347ZM736.874 244.617C736.874 248.967 736.133 252.768 734.649 256.02C733.168 259.252 731.066 261.722 728.346 263.429C725.628 265.136 722.456 265.989 718.831 265.989C715.412 265.989 712.343 265.178 709.625 263.551C706.925 261.925 704.806 259.598 703.261 256.569C701.737 253.54 700.891 250.004 700.727 245.959H694.271V265.381H688.339V220.988H694.271V241.355H700.695C700.759 237.167 701.531 233.499 703.013 230.348C704.497 227.177 706.606 224.728 709.345 223C712.085 221.252 715.227 220.378 718.77 220.378C722.374 220.378 725.546 221.242 728.285 222.97C731.045 224.677 733.168 227.167 734.649 230.44C736.133 233.692 736.874 237.483 736.874 241.812V244.617ZM730.971 241.751C730.971 236.487 729.901 232.452 727.76 229.647C725.617 226.822 722.622 225.409 718.77 225.409C715.021 225.409 712.066 226.822 709.902 229.647C707.761 232.452 706.659 236.355 706.596 241.355V244.617C706.596 249.719 707.679 253.733 709.841 256.66C712.024 259.567 715.021 261.02 718.831 261.02C722.662 261.02 725.628 259.649 727.729 256.904C729.83 254.14 730.911 250.187 730.971 245.044V241.751ZM761.825 248.001V265.381H755.893V220.988H772.484C777.406 220.988 781.257 222.228 784.039 224.708C786.841 227.187 788.241 230.47 788.241 234.556C788.241 238.865 786.87 242.188 784.131 244.526C781.413 246.843 777.511 248.001 772.423 248.001H761.825ZM761.825 243.215H772.484C775.655 243.215 778.086 242.483 779.776 241.019C781.466 239.536 782.309 237.401 782.309 234.617C782.309 231.974 781.466 229.86 779.776 228.275C778.086 226.689 775.769 225.866 772.824 225.805H761.825V243.215ZM841.802 244.617C841.802 248.967 841.061 252.768 839.576 256.02C838.095 259.252 835.994 261.722 833.276 263.429C830.555 265.136 827.383 265.989 823.758 265.989C820.215 265.989 817.075 265.136 814.336 263.429C811.597 261.702 809.464 259.252 807.94 256.081C806.437 252.89 805.665 249.201 805.623 245.014V241.812C805.623 237.544 806.374 233.773 807.879 230.501C809.382 227.228 811.504 224.728 814.244 223C817.004 221.252 820.154 220.378 823.698 220.378C827.302 220.378 830.473 221.242 833.212 222.97C835.973 224.677 838.095 227.167 839.576 230.44C841.061 233.692 841.802 237.483 841.802 241.812V244.617ZM835.901 241.751C835.901 236.487 834.828 232.452 832.688 229.647C830.544 226.822 827.549 225.409 823.698 225.409C819.949 225.409 816.993 226.822 814.829 229.647C812.688 232.452 811.586 236.355 811.526 241.355V244.617C811.526 249.719 812.606 253.733 814.768 256.66C816.951 259.567 819.949 261.02 823.758 261.02C827.589 261.02 830.555 259.649 832.656 256.904C834.757 254.14 835.838 250.187 835.901 245.044V241.751Z" fill="#161824"/>
</g>
</g>
<defs>
<clipPath id="clip0_3_918">
<rect width="841" height="294" fill="white"/>
</clipPath>
</defs>
</svg>
